HIERARCHY
ROOT Hips
{
	OFFSET 0.00000 0.00000 0.00000
	CHANNELS 6 Xposition Yposition Zposition Zrotation Yrotation Xrotation 
	JOINT LHipJoint
	{
		OFFSET 0 0 0
		CHANNELS 3 Zrotation Yrotation Xrotation
		JOINT LeftUpLeg
		{
			OFFSET 1.38691 -1.89057 0.78360
			CHANNELS 3 Zrotation Yrotation Xrotation
			JOINT LeftLeg
			{
				OFFSET 2.59731 -7.13606 0.00000
				CHANNELS 3 Zrotation Yrotation Xrotation
				JOINT LeftFoot
				{
					OFFSET 2.70078 -7.42033 0.00000
					CHANNELS 3 Zrotation Yrotation Xrotation
					JOINT LeftToeBase
					{
						OFFSET 0.16751 -0.46024 2.68862
						CHANNELS 3 Zrotation Yrotation Xrotation
						End Site
						{
							OFFSET 0.00000 -0.00000 1.37057
						}
					}
				}
			}
		}
	}
	JOINT RHipJoint
	{
		OFFSET 0 0 0
		CHANNELS 3 Zrotation Yrotation Xrotation
		JOINT RightUpLeg
		{
			OFFSET -1.38190 -1.89056 0.78359
			CHANNELS 3 Zrotation Yrotation Xrotation
			JOINT RightLeg
			{
				OFFSET -2.57785 -7.08258 0.00000
				CHANNELS 3 Zrotation Yrotation Xrotation
				JOINT RightFoot
				{
					OFFSET -2.77908 -7.63547 0.00000
					CHANNELS 3 Zrotation Yrotation Xrotation
					JOINT RightToeBase
					{
						OFFSET -0.17921 -0.49237 2.62360
						CHANNELS 3 Zrotation Yrotation Xrotation
						End Site
						{
							OFFSET -0.00000 -0.00000 1.34085
						}
					}
				}
			}
		}
	}
	JOINT LowerBack
	{
		OFFSET 0 0 0
		CHANNELS 3 Zrotation Yrotation Xrotation
		JOINT Spine
		{
			OFFSET -0.10749 2.04110 -0.22549
			CHANNELS 3 Zrotation Yrotation Xrotation
			JOINT Spine1
			{
				OFFSET 0.01213 2.05840 0.00691
				CHANNELS 3 Zrotation Yrotation Xrotation
				JOINT Neck
				{
					OFFSET 0 0 0
					CHANNELS 3 Zrotation Yrotation Xrotation
					JOINT Neck1
					{
						OFFSET 0.06585 1.81215 0.35449
						CHANNELS 3 Zrotation Yrotation Xrotation
						JOINT Head
						{
							OFFSET -0.04315 1.87555 -0.27307
							CHANNELS 3 Zrotation Yrotation Xrotation
							End Site
							{
								OFFSET -0.01775 1.89740 -0.13294
							}
						}
					}
				}
				JOINT LeftShoulder
				{
					OFFSET 0 0 0
					CHANNELS 3 Zrotation Yrotation Xrotation
					JOINT LeftArm
					{
						OFFSET 2.98012 1.63606 0.28888
						CHANNELS 3 Zrotation Yrotation Xrotation
						JOINT LeftForeArm
						{
							OFFSET 5.59864 -0.00000 -0.00000
							CHANNELS 3 Zrotation Yrotation Xrotation
							JOINT LeftHand
							{
								OFFSET 3.59542 -0.00000 -0.00000
								CHANNELS 3 Zrotation Yrotation Xrotation
								JOINT LeftFingerBase
								{
									OFFSET 0 0 0
									CHANNELS 3 Zrotation Yrotation Xrotation
									JOINT LeftHandIndex1
									{
										OFFSET 0.57201 -0.00000 -0.00000
										CHANNELS 3 Zrotation Yrotation Xrotation
										End Site
										{
											OFFSET 0.46117 -0.00000 -0.00000
										}
									}
								}
								JOINT LThumb
								{
									OFFSET 0 0 0
									CHANNELS 3 Zrotation Yrotation Xrotation
									End Site
									{
										OFFSET 0.46821 -0.00000 0.46821
									}
								}
							}
						}
					}
				}
				JOINT RightShoulder
				{
					OFFSET 0 0 0
					CHANNELS 3 Zrotation Yrotation Xrotation
					JOINT RightArm
					{
						OFFSET -3.08694 1.53706 0.36335
						CHANNELS 3 Zrotation Yrotation Xrotation
						JOINT RightForeArm
						{
							OFFSET -5.80940 -0.00000 -0.00000
							CHANNELS 3 Zrotation Yrotation Xrotation
							JOINT RightHand
							{
								OFFSET -3.66953 -0.00000 -0.00000
								CHANNELS 3 Zrotation Yrotation Xrotation
								JOINT RightFingerBase
								{
									OFFSET 0 0 0
									CHANNELS 3 Zrotation Yrotation Xrotation
									JOINT RightHandIndex1
									{
										OFFSET -0.57843 -0.00000 -0.00000
										CHANNELS 3 Zrotation Yrotation Xrotation
										End Site
										{
											OFFSET -0.46635 -0.00000 -0.00000
										}
									}
								}
								JOINT RThumb
								{
									OFFSET 0 0 0
									CHANNELS 3 Zrotation Yrotation Xrotation
									End Site
									{
										OFFSET -0.47347 -0.00000 0.47347
									}
								}
							}
						}
					}
				}
			}
		}
	}
}
MOTION
Frames: 13
Frame Time: .0083333
22.9755 19.1189 -23.785 0 0 0 0 0 0 -21 0 0 0 0 0 0 0 0 0 0 0 0 0 0 21 0 0 0 0 0 0 0 0 0 0 0 0 0 0 0 0 0 0 0 0 0 0 -16 0 0 21 0 0 11 0 0 0 -8 0 0 0 0 0 0 0 0 0 0 0 0 0 0 0 0 0 0 0 0 8 0 0 0 0 0 0 0 0 0 0 0 0 0 0 0 0 0
22.9755 19.1189 -23.7850 -4.3473 41.8162 -3.2447 0.0000 0.0000 0.0000 -15.4281 4.8278 -5.2673 5.3581 13.7761 42.3477 6.9448 -10.5966 -48.8278 0.1920 -2.8221 -7.7839 0.0000 0.0000 0.0000 22.2626 6.6012 -20.7040 -5.2361 -13.6448 41.8330 -2.2388 11.4640 -26.9543 -0.9896 6.3315 -17.7494 -5.3815 -0.1613 13.3944 -0.0302 -1.0308 0.2393 3.2097 -0.3085 -7.1833 -1.0384 -5.2821 -18.1839 3.3063 -8.5728 37.3280 0.0283 -3.0413 16.7814 -0.0000 0.0000 0.0000 -78.4822 14.3299 42.4137 48.6969 -52.4562 -25.1372 -0.0000 0.0000 -19.9786 23.4490 3.8558 1.6708 -7.1250 0.0000 -0.0000 -2.6181 34.1727 0.6961 -0.0000 0.0000 0.0000 86.0726 -2.6689 50.6036 -34.3100 44.3131 -14.3291 0.0000 -0.0000 -8.8292 -41.3816 5.9451 -5.2141 7.1250 -0.0000 -0.0000 -10.6701 -22.1221 -5.9680
22.9896 19.1297 -23.4745 -4.3480 40.8016 -3.2962 0.0000 0.0000 0.0000 -15.1338 5.1367 -5.7743 5.7294 14.1609 43.8857 6.8064 -11.0307 -48.2667 0.1754 -2.6980 -7.4390 0.0000 0.0000 0.0000 22.5671 6.9234 -20.0988 -5.1457 -13.5460 41.4482 -2.1293 11.6170 -26.3005 -1.0336 6.4666 -18.1445 -5.2833 -0.0564 13.4586 -0.0172 -0.8809 0.2133 3.1408 -0.2362 -7.2627 -0.9910 -5.1288 -18.2653 3.2030 -8.3173 37.1831 0.0218 -2.9525 16.7055 0.0000 0.0000 0.0000 -78.5802 14.9699 41.3770 47.7892 -52.0640 -24.4194 -0.0000 0.0000 -19.6874 23.3322 3.4305 1.4785 -7.1250 0.0000 -0.0000 -2.6899 33.7060 0.7457 0.0000 0.0000 0.0000 86.1301 -2.6911 50.9004 -34.2609 44.2771 -14.2949 0.0000 -0.0000 -8.9792 -41.6054 5.6862 -5.0281 7.1250 -0.0000 -0.0000 -10.8723 -22.4343 -6.0063
22.9997 19.1433 -23.1635 -4.3951 39.8160 -3.3166 0.0000 0.0000 0.0000 -14.7359 5.3608 -6.4572 6.1622 14.5837 45.6292 6.5937 -12.1750 -47.3809 0.0955 -1.9926 -5.4852 0.0000 0.0000 0.0000 22.9374 7.3251 -19.4930 -5.0404 -13.4292 40.9971 -2.0254 11.6753 -25.6634 -1.0722 6.5824 -18.4839 -5.2259 0.0373 13.4803 0.0216 -0.7486 0.1634 3.1251 -0.1704 -7.3410 -0.8815 -4.9681 -18.2378 3.0474 -8.0471 36.9747 -0.0120 -2.8608 16.5629 -0.0000 -0.0000 0.0000 -78.7291 15.6639 40.3451 47.0390 -51.7292 -23.8290 -0.0000 0.0000 -19.3711 23.2550 3.1695 1.3611 -7.1250 0.0000 -0.0000 -2.7387 33.4199 0.7782 -0.0000 -0.0000 0.0000 86.1780 -2.7731 51.2358 -34.2387 44.2608 -14.2794 0.0000 -0.0000 -9.2780 -41.7423 5.5010 -4.8890 7.1250 -0.0000 -0.0000 -11.0011 -22.6611 -6.0218
23.0112 19.1642 -22.8529 -4.3548 38.8805 -3.2357 0.0000 0.0000 0.0000 -14.3764 5.5970 -7.2338 6.6034 14.9886 47.3580 6.3317 -12.9313 -46.3247 0.0425 -1.3304 -3.6584 0.0000 0.0000 0.0000 23.2257 7.6425 -18.8734 -4.9108 -13.2826 40.4359 -1.9223 11.5688 -25.0037 -1.1478 6.8029 -19.1328 -5.2416 0.1045 13.4683 0.0842 -0.6593 0.1085 3.1838 -0.1229 -7.4008 -0.9209 -4.7799 -18.1564 2.9794 -7.7114 36.7121 0.0322 -2.7527 16.3934 -0.0000 0.0000 0.0000 -78.9302 16.3300 39.3528 46.3466 -51.4114 -23.2866 -0.0000 0.0000 -19.2648 23.1208 2.9082 1.2410 -7.1250 0.0000 -0.0000 -2.8340 33.1321 0.8251 -0.0000 0.0000 0.0000 86.1302 -2.8684 51.5834 -34.2417 44.2630 -14.2815 0.0000 -0.0000 -9.5893 -41.7995 5.4032 -4.8124 7.1250 -0.0000 -0.0000 -11.0583 -22.7828 -6.0229
23.0222 19.1896 -22.5452 -4.3486 37.9776 -3.2151 0.0000 0.0000 0.0000 -13.9693 5.6771 -8.0163 7.0862 15.4040 49.1995 6.0465 -12.8835 -45.1889 0.0170 -0.8424 -2.3154 0.0000 0.0000 0.0000 23.5248 8.1069 -18.1110 -4.7503 -13.0970 39.7326 -1.9156 11.1621 -24.9254 -1.1659 6.8545 -19.2851 -5.1457 0.2562 13.5712 0.1013 -0.4487 0.0883 3.1080 -0.0207 -7.5007 -0.8898 -4.7110 -18.2027 2.9018 -7.5833 36.4564 0.0162 -2.7176 16.2624 0.0000 -0.0000 0.0000 -78.8679 17.0075 38.8352 46.2004 -51.3432 -23.1724 -0.0000 0.0000 -19.4096 23.0514 2.9770 1.2660 -7.1250 0.0000 -0.0000 -2.8942 33.2047 0.8376 0.0000 -0.0000 0.0000 86.1798 -2.9487 51.6284 -34.2328 44.2565 -14.2753 0.0000 -0.0000 -9.8209 -42.0968 5.1542 -4.6402 7.1250 -0.0000 -0.0000 -11.3132 -23.0779 -6.0889
23.0338 19.2321 -22.2354 -4.3677 37.1445 -3.2061 0.0000 0.0000 0.0000 -13.4271 5.7408 -8.9037 7.5992 15.8164 51.1058 5.7033 -10.1568 -43.9162 0.0447 -1.3642 -3.7514 0.0000 0.0000 0.0000 23.8302 8.4436 -17.2560 -4.5476 -12.8554 38.8297 -1.8054 10.9243 -24.1894 -1.1313 6.7555 -18.9929 -5.0903 0.3962 13.6792 0.1570 -0.2570 0.0752 3.0994 0.0740 -7.5933 -0.9506 -4.6531 -18.2277 2.8919 -7.4639 36.1992 0.0443 -2.6889 16.1363 0.0000 -0.0000 0.0000 -78.8735 17.4653 38.3168 45.6128 -51.0652 -22.7145 -0.0000 0.0000 -19.3485 22.5053 2.9801 1.2340 -7.1250 0.0000 -0.0000 -3.3384 33.1920 0.9675 0.0000 -0.0000 0.0000 86.1926 -3.0076 51.5794 -34.1528 44.1976 -14.2195 0.0000 -0.0000 -10.2292 -42.1437 5.6171 -5.0619 7.1250 -0.0000 -0.0000 -11.2673 -22.4651 -6.2247
23.0529 19.2751 -21.9296 -4.4266 36.5161 -3.0996 0.0000 0.0000 0.0000 -12.9169 5.2818 -9.8877 8.1435 16.2238 53.0778 5.0816 -7.7682 -41.4850 0.0002 -0.0858 -0.2358 0.0000 0.0000 0.0000 24.1051 8.5409 -16.5401 -4.3205 -12.5751 37.7982 -1.7081 11.1750 -23.5658 -1.4380 7.5814 -21.4498 -4.8803 0.4169 13.6846 0.2283 -0.1930 0.0298 3.0442 0.1007 -7.6511 -1.0506 -4.5655 -18.2216 2.8403 -7.2685 35.9360 0.0764 -2.6406 15.9978 -0.0000 -0.0000 0.0000 -78.9193 17.9114 37.9105 45.0528 -50.7943 -22.2797 -0.0000 0.0000 -19.6997 22.6160 2.8215 1.1748 -7.1250 0.0000 -0.0000 -3.2393 33.0238 0.9519 -0.0000 -0.0000 0.0000 86.0984 -3.0900 51.7087 -34.1180 44.1720 -14.1952 0.0000 -0.0000 -10.4669 -42.4239 5.3816 -4.8990 7.1250 -0.0000 -0.0000 -11.5076 -22.7441 -6.2877
23.0701 19.3266 -21.6249 -4.4786 35.9345 -2.8994 0.0000 0.0000 0.0000 -12.4227 4.6123 -11.0147 8.6936 16.6065 55.0244 4.4992 -4.7290 -39.2971 0.0044 -0.4276 -1.1749 0.0000 0.0000 0.0000 24.3399 8.7717 -15.8640 -4.0725 -12.2563 36.6449 -1.5956 10.9506 -22.7766 -1.4339 7.5711 -21.4187 -4.6921 0.4555 13.6495 0.2935 -0.1071 -0.0276 2.9901 0.1384 -7.7006 -1.1679 -4.5232 -18.2432 2.8232 -7.1503 35.6993 0.1108 -2.6194 15.8855 -0.0000 -0.0000 0.0000 -78.9677 18.2098 37.6117 44.4443 -50.4933 -21.8092 -0.0000 0.0000 -20.0792 22.5809 2.8099 1.1679 -7.1250 0.0000 -0.0000 -3.2671 33.0103 0.9612 -0.0000 -0.0000 0.0000 86.0314 -3.1821 51.8735 -33.9171 44.0232 -14.0554 0.0000 -0.0000 -9.8992 -43.2410 5.0713 -4.7520 7.1250 -0.0000 -0.0000 -12.1454 -23.0670 -6.5595
23.0887 19.3813 -21.3214 -4.4775 35.4195 -2.6540 0.0000 0.0000 0.0000 -11.9737 3.7327 -12.0714 9.2098 16.9408 56.8127 3.8475 -1.5170 -36.8635 0.0220 -0.9583 -2.6340 0.0000 0.0000 0.0000 24.4475 8.9072 -15.3067 -3.8435 -11.9492 35.5527 -1.5282 10.8647 -22.2970 -1.1110 6.6964 -18.8191 -4.4810 0.4977 13.5919 0.3051 -0.0152 -0.0698 2.8643 0.1761 -7.7210 -1.2230 -4.4989 -18.2604 2.8398 -7.0950 35.4727 0.1372 -2.6098 15.7791 -0.0000 0.0000 0.0000 -78.8949 18.4522 37.5983 43.8162 -50.1752 -21.3257 -0.0000 0.0000 -20.7620 23.1779 2.3672 1.0131 -7.1250 0.0000 -0.0000 -2.7606 32.5463 0.8428 -0.0000 0.0000 0.0000 86.0628 -3.1994 51.5854 -33.9639 44.0580 -14.0879 0.0000 -0.0000 -10.6157 -42.7987 5.0233 -4.6353 7.1250 -0.0000 -0.0000 -11.8383 -23.1777 -6.3556
23.1108 19.4219 -21.0240 -4.5419 35.0683 -2.4280 0.0000 0.0000 0.0000 -11.4901 2.6737 -13.0365 9.6579 17.2130 58.3388 2.9960 2.4036 -33.6590 0.1665 -2.6285 -7.2462 0.0000 0.0000 0.0000 24.6060 8.8571 -14.8964 -3.6502 -11.6798 34.6085 -1.4916 10.7861 -22.0300 -0.9881 6.3269 -17.7359 -4.1479 0.4662 13.5640 0.3397 -0.0020 -0.1252 2.7098 0.1719 -7.7651 -1.4966 -4.4619 -18.3327 3.0042 -7.0011 35.3293 0.2697 -2.5884 15.7451 -0.0000 0.0000 0.0000 -78.8844 18.7260 37.3528 43.2507 -49.8821 -20.8922 -0.0000 0.0000 -20.5840 22.9545 2.5248 1.0689 -7.1250 0.0000 -0.0000 -2.9491 32.7118 0.8887 -0.0000 0.0000 0.0000 86.0684 -3.2821 51.3898 -33.8314 43.9594 -13.9959 0.0000 -0.0000 -10.6917 -42.8334 5.0165 -4.6347 7.1250 -0.0000 -0.0000 -11.8643 -23.1831 -6.3687
23.1308 19.4557 -20.7287 -4.5345 34.7467 -2.1676 0.0000 0.0000 0.0000 -11.0762 1.5489 -13.7092 9.9852 17.4015 59.4390 2.3359 4.2696 -30.6355 0.2392 -3.1475 -8.6898 0.0000 0.0000 0.0000 24.6296 8.9333 -14.6650 -3.5206 -11.4936 33.9632 -1.4643 10.7596 -21.8317 -1.3617 7.3861 -20.8643 -3.8809 0.4590 13.5277 0.3498 0.0324 -0.1456 2.5624 0.1786 -7.7683 -1.6214 -4.4543 -18.4163 3.0713 -6.9681 35.1867 0.3234 -2.5857 15.7034 -0.0000 -0.0000 0.0000 -78.7115 18.9197 37.5905 42.8072 -49.6479 -20.5537 -0.0000 0.0000 -21.2487 23.5276 2.5136 1.0939 -7.1250 0.0000 -0.0000 -2.4846 32.7141 0.7483 -0.0000 -0.0000 0.0000 86.0628 -3.2230 51.1672 -33.5794 43.7707 -13.8213 0.0000 -0.0000 -10.8102 -42.8941 5.3609 -4.9609 7.1250 -0.0000 -0.0000 -11.8460 -22.7198 -6.4873
23.1483 19.4683 -20.4364 -4.4949 34.4469 -1.8983 0.0000 0.0000 0.0000 -10.6628 0.3412 -13.9631 10.1844 17.5123 60.1030 2.0227 2.9045 -28.0386 0.2626 -3.2969 -9.1064 0.0000 0.0000 0.0000 24.6040 8.9225 -14.6649 -3.4540 -11.3961 33.6276 -1.4242 10.8083 -21.5488 -1.3351 7.3165 -20.6563 -3.6505 0.5019 13.5238 0.3119 0.1221 -0.1809 2.3734 0.2135 -7.8096 -1.8665 -4.5289 -18.4446 3.3421 -7.0931 35.0926 0.4558 -2.6343 15.6960 -0.0000 0.0000 0.0000 -78.3148 19.0719 38.1230 42.3099 -49.3804 -20.1755 -0.0000 0.0000 -21.5969 23.3758 2.3315 1.0074 -7.1250 0.0000 -0.0000 -2.5990 32.5121 0.7955 -0.0000 0.0000 0.0000 86.1991 -3.3430 50.8330 -33.4859 43.7002 -13.7566 0.0000 -0.0000 -10.5255 -43.1875 4.4590 -4.1738 7.1250 -0.0000 -0.0000 -12.2184 -23.8888 -6.3638
